<svg width="14" height="14" viewBox="0 0 14 14" fill="none" xmlns="http://www.w3.org/2000/svg">
<g clip-path="url(#clip0_335_821)">
<path d="M8.0076 2.00906L9.03415 4.07914C9.17415 4.3673 9.54743 4.6437 9.86243 4.69663L11.723 5.00831C12.9129 5.20827 13.1929 6.07864 12.3355 6.93725L10.889 8.3957C10.644 8.64268 10.5099 9.11903 10.5856 9.46017L10.9998 11.2656C11.3264 12.6946 10.574 13.2475 9.31999 12.5006L7.57599 11.4597C7.26105 11.2715 6.74194 11.2715 6.42111 11.4597L4.67716 12.5006C3.42896 13.2475 2.67072 12.6887 2.99735 11.2656L3.41147 9.46017C3.48729 9.11903 3.35314 8.64268 3.10816 8.3957L1.66166 6.93725C0.810087 6.07864 1.08422 5.20827 2.27409 5.00831L4.13472 4.69663C4.44385 4.6437 4.81714 4.3673 4.95713 4.07914L5.98367 2.00906C6.54361 0.885814 7.45349 0.885814 8.0076 2.00906Z" fill="#F5DA02" stroke="#282924" stroke-opacity="0.2" stroke-width="0.5" stroke-linecap="round" stroke-linejoin="round"/>
</g>
<defs>
<clipPath id="clip0_335_821">
<rect width="14" height="14" fill="white"/>
</clipPath>
</defs>
</svg>
