<svg width="1260" height="154" viewBox="0 0 1260 154" fill="none" xmlns="http://www.w3.org/2000/svg">
<path d="M0 153.882V2.92552H43.4927V117.801H114.29V153.882H0Z" fill="black"/>
<path d="M152.733 153.882H109.241L158.194 2.92552H209.098L259.612 153.882H214.364L207.343 128.918H159.56L152.733 153.882ZM182.964 42.5176L167.556 99.2726H198.957L182.964 42.5176Z" fill="black"/>
<path d="M287.676 153.882V2.92552H397.481V38.0318H331.169V67.482H389.874V101.028H331.169V153.882H287.676Z" fill="black"/>
<path d="M404.392 153.882V2.92552H447.885V117.801H518.682V153.882H404.392Z" fill="black"/>
<path d="M523.775 153.882V2.92552H635.53V37.2516H567.267V60.4607H630.654V93.2266H567.267V119.556H639.43V153.882H523.775Z" fill="black"/>
<path d="M646.776 153.882V2.92552H699.24L731.031 102.588L763.602 2.92552H811.775V153.882H773.549V60.8508L746.244 153.882H712.113L684.223 61.631V153.882H646.776Z" fill="black"/>
<path d="M824.631 153.882V2.92552H877.095L908.886 102.588L941.457 2.92552H989.63V153.882H951.403V60.8508L924.099 153.882H889.968L862.078 61.631V153.882H824.631Z" fill="black"/>
<path d="M1002.49 153.882V2.92552H1114.24V37.2516H1045.98V60.4607H1109.36V93.2266H1045.98V119.556H1118.14V153.882H1002.49Z" fill="black"/>
<path d="M1199.15 35.8864C1193.43 35.8864 1189.01 37.9017 1185.89 41.9325C1182.77 45.9632 1180.82 52.1393 1180.04 60.4607L1137.91 53.6345C1140.51 36.4715 1147.46 23.2741 1158.78 14.0425C1170.09 4.68083 1184.72 0 1202.66 0C1219.69 0 1233.48 4.16074 1244.01 12.4822C1254.67 20.6737 1260 31.4656 1260 44.858C1260 52.5293 1258.31 59.3556 1254.93 65.3366C1251.55 71.3177 1245.63 77.4938 1237.18 83.8649C1235.23 85.2952 1232.83 86.9855 1229.96 88.9358C1227.1 90.8862 1225.28 92.1214 1224.5 92.6415C1221.51 94.8519 1219.5 96.8672 1218.46 98.6875C1217.55 100.378 1217.09 102.588 1217.09 105.319V107.074H1179.26V102.198C1179.26 96.7372 1180.23 91.9913 1182.18 87.9606C1184.26 83.7999 1189.07 78.534 1196.61 72.1628C1203.9 65.5316 1208.38 60.7858 1210.07 57.9253C1211.89 54.9348 1212.8 51.8792 1212.8 48.7587C1212.8 44.7279 1211.57 41.6074 1209.1 39.397C1206.76 37.0566 1203.44 35.8864 1199.15 35.8864ZM1217.68 153.882H1178.67V118.191H1217.68V153.882Z" fill="black"/>
</svg>
