<svg width="352" height="461" viewBox="0 0 352 461" fill="none" xmlns="http://www.w3.org/2000/svg">
<path d="M157.673 12.3184C237.95 12.3184 303.028 77.3957 303.028 157.673V436.989L157.673 448.346L12.3184 436.989V157.673C12.3185 77.3958 77.3958 12.3186 157.673 12.3184Z" fill="#4E77CF" stroke="black" stroke-width="24.6365" stroke-linejoin="round"/>
<g clip-path="url(#clip0_30_4454)">
<rect x="223.89" y="96.082" width="128.11" height="128.11" rx="64.0548" fill="white"/>
<circle cx="266.747" cy="163.362" r="42.8568" fill="black"/>
<circle cx="249.236" cy="167.049" r="15.6681" fill="white"/>
<circle cx="283.337" cy="160.137" r="9.67734" fill="white"/>
<rect x="226.195" y="93.7782" width="123.501" height="46.5434" fill="#4E77CF"/>
<rect x="226.195" y="93.7782" width="123.501" height="46.5434" stroke="black" stroke-width="4.60826"/>
</g>
<rect x="226.195" y="98.3862" width="123.501" height="123.501" rx="61.7506" stroke="black" stroke-width="4.60826"/>
<g clip-path="url(#clip1_30_4454)">
<rect x="98.5459" y="96.082" width="128.11" height="128.11" rx="64.0548" fill="white"/>
<circle cx="141.403" cy="163.362" r="42.8568" fill="black"/>
<circle cx="123.892" cy="167.049" r="15.6681" fill="white"/>
<circle cx="157.993" cy="160.137" r="9.67734" fill="white"/>
<rect x="100.851" y="93.7782" width="123.501" height="46.5434" fill="#4E77CF"/>
<rect x="100.851" y="93.7782" width="123.501" height="46.5434" stroke="black" stroke-width="4.60826"/>
</g>
<rect x="100.85" y="98.3862" width="123.501" height="123.501" rx="61.7506" stroke="black" stroke-width="4.60826"/>
<defs>
<clipPath id="clip0_30_4454">
<rect x="223.89" y="96.082" width="128.11" height="128.11" rx="64.0548" fill="white"/>
</clipPath>
<clipPath id="clip1_30_4454">
<rect x="98.5459" y="96.082" width="128.11" height="128.11" rx="64.0548" fill="white"/>
</clipPath>
</defs>
</svg>
