<svg width="305" height="305" viewBox="0 0 305 305" fill="none" xmlns="http://www.w3.org/2000/svg">
<path d="M133.699 34.5443C136.515 12.6959 168.585 12.8695 170.936 35.0648L170.972 35.3549C171.855 41.3743 179.925 42.9955 183.025 37.6351L183.293 37.184C194.661 18.5177 223.519 31.3663 217.254 52.3051L217.099 52.8051C215.159 58.7898 222.005 63.7635 227.098 60.0697L227.525 59.767C245.503 47.3383 266.64 70.8137 252.4 87.3939L252.055 87.7875C247.849 92.466 252.08 99.7943 258.234 98.4916L258.748 98.389C280.227 94.3465 289.989 124.389 270.236 133.745L269.761 133.963C264.016 136.527 264.899 144.943 271.052 146.256L271.563 146.37C292.829 151.414 289.527 182.83 267.678 183.342L267.153 183.349C260.862 183.354 258.248 191.402 263.334 195.104L263.754 195.417C281.13 208.675 265.335 236.032 245.166 227.612L244.686 227.405C238.936 224.85 233.274 231.139 236.415 236.59L236.671 237.046C247.153 256.225 221.597 274.793 206.596 258.898L206.24 258.513C202.027 253.841 194.297 257.283 194.949 263.54L194.998 264.062C196.773 285.846 165.873 292.413 158.635 271.79L158.467 271.294C156.548 265.406 148.319 265.315 146.203 271.019L146.106 271.294C139.138 292.683 107.291 285.914 109.624 263.54L109.649 263.248C110.03 257.274 102.719 254.018 98.5332 258.299L98.333 258.513C83.2671 275.218 56.9272 256.081 68.1592 236.59L68.2998 236.333C71.078 231.03 65.7222 225.082 60.1572 227.291L59.8887 227.405C39.3306 236.538 23.0508 208.341 41.2393 195.104L41.4727 194.927C46.1679 191.212 43.6944 183.6 37.7119 183.355L37.4199 183.349C14.9245 183.331 11.5214 150.951 33.5215 146.256L33.8057 146.189C39.6063 144.705 40.4431 136.746 35.0781 134.088L34.8135 133.963C14.2702 124.797 24.3312 93.8322 46.3389 98.4916L46.626 98.5463C52.5285 99.5501 56.5302 92.6192 52.71 88.0092L52.5186 87.7875C37.4799 71.058 59.2658 46.8623 77.4756 60.0697L77.7158 60.2367C82.7 63.5546 89.1753 58.85 87.5596 53.0844L87.4756 52.8051C80.5412 31.4049 110.284 18.1623 121.548 37.6351L121.699 37.8851C124.955 43.0247 132.985 41.2232 133.638 35.0648L133.699 34.5443Z" fill="#7D4FEA" stroke="black" stroke-width="12.2533"/>
<g clip-path="url(#clip0_73_482)">
<rect x="151.267" y="81.0469" width="65.4067" height="65.4067" rx="32.7034" fill="white"/>
<circle cx="195.612" cy="112.628" r="21.8807" fill="black"/>
<circle cx="186.671" cy="114.51" r="7.99938" fill="white"/>
<circle cx="204.081" cy="110.981" r="4.9408" fill="white"/>
<rect x="161.698" y="72.1158" width="63.054" height="23.7629" transform="rotate(15 161.698 72.1158)" fill="#7D4FEA"/>
<rect x="161.698" y="72.1158" width="63.054" height="23.7629" transform="rotate(15 161.698 72.1158)" stroke="black" stroke-width="2.35276"/>
</g>
<rect x="152.443" y="82.2233" width="63.054" height="63.054" rx="31.527" stroke="black" stroke-width="2.35276"/>
<g clip-path="url(#clip1_73_482)">
<rect x="87.4473" y="79.5154" width="65.4067" height="65.4067" rx="32.7034" fill="white"/>
<circle cx="109.328" cy="110.586" r="21.8807" fill="black"/>
<circle cx="100.387" cy="112.468" r="7.99938" fill="white"/>
<circle cx="117.797" cy="108.939" r="4.9408" fill="white"/>
<rect x="97.8787" y="70.5842" width="63.054" height="23.7629" transform="rotate(15 97.8787 70.5842)" fill="#7D4FEA"/>
<rect x="97.8787" y="70.5842" width="63.054" height="23.7629" transform="rotate(15 97.8787 70.5842)" stroke="black" stroke-width="2.35276"/>
</g>
<rect x="88.6236" y="80.6918" width="63.054" height="63.054" rx="31.527" stroke="black" stroke-width="2.35276"/>
<defs>
<clipPath id="clip0_73_482">
<rect x="151.267" y="81.0469" width="65.4067" height="65.4067" rx="32.7034" fill="white"/>
</clipPath>
<clipPath id="clip1_73_482">
<rect x="87.4473" y="79.5154" width="65.4067" height="65.4067" rx="32.7034" fill="white"/>
</clipPath>
</defs>
</svg>
