<svg width="20" height="20" viewBox="0 0 20 20" fill="none" xmlns="http://www.w3.org/2000/svg">
<path d="M3.61737 14.0651L2.64822 8.27964C2.49057 7.33858 2.41176 6.86806 2.65447 6.55903C2.89718 6.25 3.34557 6.25 4.24232 6.25H15.7577C16.6544 6.25 17.1028 6.25 17.3455 6.55903C17.5883 6.86806 17.5094 7.33858 17.3518 8.27964L16.3826 14.0651C16.0408 16.1053 15.87 17.1254 15.1933 17.7293C14.5166 18.3333 13.5445 18.3333 11.6003 18.3333H8.39967C6.45553 18.3333 5.48345 18.3333 4.80674 17.7293C4.13002 17.1254 3.95914 16.1053 3.61737 14.0651Z" stroke="#282924" stroke-width="1.66667"/>
<path d="M5.83325 6.25008V5.83341C5.83325 3.53223 7.69874 1.66675 9.99992 1.66675C12.3011 1.66675 14.1666 3.53223 14.1666 5.83341V6.25008" stroke="#282924" stroke-width="1.66667"/>
<path d="M3.75 14.5833H16.25" stroke="#282924" stroke-width="1.66667"/>
</svg>
