<svg width="20" height="20" viewBox="0 0 20 20" fill="none" xmlns="http://www.w3.org/2000/svg">
<path d="M7.94167 13.435C7.72366 12.8975 7.32556 12.4526 6.81556 12.1764C6.30556 11.9002 5.7154 11.8099 5.14614 11.921C4.57689 12.0321 4.06398 12.3376 3.69525 12.7853C3.32653 13.233 3.12493 13.795 3.125 14.375C3.125 14.6317 3.07227 14.8858 2.97007 15.1213C2.86787 15.3568 2.71838 15.5689 2.53087 15.7443C2.34336 15.9197 2.12182 16.0547 1.87999 16.141C1.63816 16.2272 1.38119 16.2629 1.125 16.2458C1.53704 16.9616 2.17386 17.5214 2.9366 17.8381C3.69934 18.1549 4.54534 18.2111 5.34325 17.9978C6.14116 17.7846 6.84635 17.3139 7.34934 16.6588C7.85234 16.0037 8.125 15.2009 8.125 14.375C8.125 14.0425 8.06 13.725 7.94167 13.435ZM7.94167 13.435C8.93251 13.0974 9.88015 12.6443 10.765 12.085M6.5625 12.0641C6.90017 11.0712 7.35387 10.1216 7.91417 9.23498M10.7642 12.085C12.3445 11.0865 13.6971 9.76685 14.7342 8.21165L17.9642 3.36665C18.0879 3.18212 18.1437 2.96035 18.1221 2.73922C18.1005 2.5181 18.0029 2.31133 17.8458 2.15423C17.6887 1.99712 17.4819 1.89943 17.2608 1.87783C17.0396 1.85624 16.8179 1.91208 16.6333 2.03581L11.7883 5.26665C10.2329 6.30343 8.91297 7.65575 7.91417 9.23581C9.18241 9.80288 10.1971 10.8176 10.7642 12.0858" stroke="black" stroke-width="1.25" stroke-linecap="round" stroke-linejoin="round"/>
</svg>
