<svg width="57" height="50" viewBox="0 0 57 50" fill="none" xmlns="http://www.w3.org/2000/svg">
<path d="M21.2229 12.8645L22.9333 10.1229C23.318 9.49806 23.8474 8.97513 24.477 8.59835C25.1065 8.22156 25.8176 8.00201 26.55 7.95827C30.1807 7.76326 33.8193 7.76326 37.45 7.95827C38.1824 8.00201 38.8934 8.22156 39.523 8.59835C40.1525 8.97513 40.682 9.49806 41.0667 10.1229L42.7792 12.8645C43.154 13.4578 43.654 13.962 44.2442 14.3417C44.8344 14.7214 45.5005 14.9674 46.1958 15.0624C46.9848 15.1745 47.7723 15.2961 48.5583 15.427C50.75 15.7916 52.3125 17.7229 52.3125 19.9458V37.4999C52.3125 38.7431 51.8186 39.9354 50.9396 40.8145C50.0605 41.6936 48.8682 42.1874 47.625 42.1874H16.375C15.1318 42.1874 13.9395 41.6936 13.0604 40.8145C12.1814 39.9354 11.6875 38.7431 11.6875 37.4999V28.7229" stroke="black" stroke-width="3.125" stroke-linecap="round" stroke-linejoin="round"/>
<path d="M41.375 26.5625C41.375 29.0489 40.3873 31.4335 38.6291 33.1916C36.871 34.9498 34.4864 35.9375 32 35.9375C29.5136 35.9375 27.129 34.9498 25.3709 33.1916C23.6127 31.4335 22.625 29.0489 22.625 26.5625C22.625 24.0761 23.6127 21.6915 25.3709 19.9334C27.129 18.1752 29.5136 17.1875 32 17.1875C34.4864 17.1875 36.871 18.1752 38.6291 19.9334C40.3873 21.6915 41.375 24.0761 41.375 26.5625ZM46.0625 21.875H46.0792V21.8917H46.0625V21.875Z" stroke="black" stroke-width="3.125" stroke-linecap="round" stroke-linejoin="round"/>
<path d="M12 9.5V24.5M19.5 17H4.5" stroke="black" stroke-width="1.5" stroke-linecap="round" stroke-linejoin="round"/>
</svg>
