<svg width="32" height="32" viewBox="0 0 32 32" fill="none" xmlns="http://www.w3.org/2000/svg">
<path d="M6.11121 23.0948C4.73755 21.6367 4 20 4 17.3472C4 12.6812 7.27535 8.49829 12.0408 6.43098L13.231 8.2678C8.78405 10.6739 7.91491 13.7948 7.56752 15.7628C8.28351 15.3925 9.22077 15.2623 10.1396 15.3475C12.5454 15.5704 14.4416 17.5455 14.4416 20C14.4416 22.5773 12.3522 24.6667 9.77488 24.6667C8.34413 24.6667 6.97595 24.0128 6.11121 23.0948ZM19.4445 23.0948C18.0709 21.6367 17.3333 20 17.3333 17.3472C17.3333 12.6812 20.6087 8.49829 25.3741 6.43098L26.5644 8.2678C22.1173 10.6739 21.2483 13.7948 20.9008 15.7628C21.6168 15.3925 22.5541 15.2623 23.4729 15.3475C25.8788 15.5704 27.7749 17.5455 27.7749 20C27.7749 22.5773 25.6856 24.6667 23.1083 24.6667C21.6775 24.6667 20.3093 24.0128 19.4445 23.0948Z" fill="#4E77CF"/>
</svg>
