<svg width="283" height="285" viewBox="0 0 283 285" fill="none" xmlns="http://www.w3.org/2000/svg">
<path d="M121.094 22.9043C123.464 0.534019 156.023 0.534068 158.392 22.9043C159.055 29.1603 167.332 30.92 170.482 25.4746C181.746 6.00188 211.49 19.2444 204.555 40.6445C202.616 46.6293 209.462 51.603 214.554 47.9092C232.764 34.7012 254.551 58.8974 239.511 75.627C235.306 80.3055 239.537 87.6338 245.691 86.3311C267.699 81.6716 277.76 112.636 257.217 121.803C251.472 124.366 252.356 132.783 258.509 134.096C280.509 138.79 277.106 171.17 254.61 171.188C248.319 171.194 245.704 179.241 250.791 182.943C268.979 196.18 252.7 224.377 232.142 215.244C226.393 212.69 220.731 218.979 223.872 224.43C235.104 243.92 208.763 263.058 193.697 246.353C189.484 241.681 181.753 245.123 182.406 251.38C184.739 273.754 152.892 280.523 145.924 259.134C143.975 253.152 135.512 253.152 133.563 259.134C126.595 280.523 94.7478 273.754 97.0808 251.38C97.7334 245.123 90.0031 241.681 85.7898 246.353C70.724 263.058 44.3839 243.92 55.616 224.43C58.7571 218.979 53.0947 212.69 47.3455 215.244C26.7874 224.377 10.5076 196.181 28.696 182.943C33.7827 179.241 31.1679 171.194 24.8767 171.188C2.38129 171.17 -1.02183 138.79 20.9783 134.096C27.1309 132.783 28.0155 124.366 22.2703 121.803C1.72698 112.636 11.788 81.6717 33.7957 86.3311C39.9504 87.6341 44.1812 80.3056 39.9753 75.627C24.9367 58.8975 46.7226 34.7018 64.9324 47.9092C70.025 51.6029 76.8715 46.6293 74.9324 40.6445C67.998 19.2444 97.7412 6.00187 109.005 25.4746C112.155 30.9203 120.432 29.1604 121.094 22.9043Z" fill="#7D4FEA" stroke="black" stroke-width="12.2533"/>
<g clip-path="url(#clip0_306_308)">
<rect x="151.504" y="81.6665" width="65.4067" height="65.4067" rx="32.7034" fill="white"/>
<circle cx="195.849" cy="113.248" r="21.8807" fill="black"/>
<circle cx="186.908" cy="115.13" r="7.99938" fill="white"/>
<circle cx="204.319" cy="111.601" r="4.9408" fill="white"/>
<rect x="161.936" y="72.7354" width="63.054" height="23.7629" transform="rotate(15 161.936 72.7354)" fill="#7D4FEA"/>
<rect x="161.936" y="72.7354" width="63.054" height="23.7629" transform="rotate(15 161.936 72.7354)" stroke="black" stroke-width="2.35276"/>
</g>
<rect x="152.68" y="82.8429" width="63.054" height="63.054" rx="31.527" stroke="black" stroke-width="2.35276"/>
<g clip-path="url(#clip1_306_308)">
<rect x="87.6838" y="80.135" width="65.4067" height="65.4067" rx="32.7034" fill="white"/>
<circle cx="109.564" cy="111.206" r="21.8807" fill="black"/>
<circle cx="100.624" cy="113.088" r="7.99938" fill="white"/>
<circle cx="118.034" cy="109.559" r="4.9408" fill="white"/>
<rect x="98.1153" y="71.2039" width="63.054" height="23.7629" transform="rotate(15 98.1153 71.2039)" fill="#7D4FEA"/>
<rect x="98.1153" y="71.2039" width="63.054" height="23.7629" transform="rotate(15 98.1153 71.2039)" stroke="black" stroke-width="2.35276"/>
</g>
<rect x="88.8602" y="81.3114" width="63.054" height="63.054" rx="31.527" stroke="black" stroke-width="2.35276"/>
<defs>
<clipPath id="clip0_306_308">
<rect x="151.504" y="81.6665" width="65.4067" height="65.4067" rx="32.7034" fill="white"/>
</clipPath>
<clipPath id="clip1_306_308">
<rect x="87.6838" y="80.135" width="65.4067" height="65.4067" rx="32.7034" fill="white"/>
</clipPath>
</defs>
</svg>
