<svg width="325" height="290" viewBox="0 0 325 290" fill="none" xmlns="http://www.w3.org/2000/svg">
<path d="M153.091 21.6719C157.23 14.5021 167.482 14.3902 171.812 21.3359L172.014 21.6719L289.084 224.443C293.289 231.727 288.032 240.831 279.622 240.831H45.4824C37.2038 240.831 31.9815 232.009 35.8311 224.786L36.0215 224.443L153.091 21.6719Z" fill="#FF6FBD" stroke="black" stroke-width="14.1152"/>
<g clip-path="url(#clip0_73_496)">
<rect x="161.578" y="87.0347" width="75.3453" height="75.3453" rx="37.6726" fill="white"/>
<circle cx="199.198" cy="126.604" r="25.2054" fill="black"/>
<circle cx="188.899" cy="128.773" r="9.21489" fill="white"/>
<circle cx="208.955" cy="124.707" r="5.69155" fill="white"/>
<rect x="162.73" y="85.4492" width="72.5706" height="38.4589" fill="#FF6FBD"/>
<rect x="162.73" y="85.4492" width="72.5706" height="38.4589" stroke="black" stroke-width="2.71026"/>
</g>
<rect x="162.933" y="88.3898" width="72.635" height="72.635" rx="36.3175" stroke="black" stroke-width="2.71026"/>
<g clip-path="url(#clip1_73_496)">
<rect x="87.8604" y="87.0344" width="75.3453" height="75.3453" rx="37.6726" fill="white"/>
<circle cx="125.683" cy="126.604" r="25.2054" fill="black"/>
<circle cx="115.383" cy="128.773" r="9.21489" fill="white"/>
<circle cx="135.441" cy="124.707" r="5.69155" fill="white"/>
<rect x="89.2155" y="85.449" width="72.5706" height="38.4589" fill="#FF6FBD"/>
<rect x="89.2155" y="85.449" width="72.5706" height="38.4589" stroke="black" stroke-width="2.71026"/>
</g>
<rect x="89.2155" y="88.3896" width="72.635" height="72.635" rx="36.3175" stroke="black" stroke-width="2.71026"/>
<defs>
<clipPath id="clip0_73_496">
<rect x="161.578" y="87.0347" width="75.3453" height="75.3453" rx="37.6726" fill="white"/>
</clipPath>
<clipPath id="clip1_73_496">
<rect x="87.8604" y="87.0344" width="75.3453" height="75.3453" rx="37.6726" fill="white"/>
</clipPath>
</defs>
</svg>
