<svg width="1076" height="525" viewBox="0 0 1076 525" fill="none" xmlns="http://www.w3.org/2000/svg">
<path d="M588.859 104.779L594.228 113.735L602.944 107.984L711.411 36.4131L699.795 117.869L697.534 133.723L712.771 128.796L855.454 82.6611L793.859 149.418L775.481 169.336L802.393 166.129L954.643 147.983L856.474 196.991L822.441 213.98L860.43 215.926L1004.6 223.306L879.394 252.766V272.234L1004.6 301.693L860.43 309.074L822.441 311.02L856.474 328.009L954.643 377.016L802.393 358.871L775.481 355.664L793.859 375.582L855.454 442.338L712.771 396.204L697.534 391.277L699.795 407.131L711.411 488.586L602.944 417.016L594.228 411.265L588.859 420.221L537.705 505.551L486.551 420.221L481.182 411.265L472.466 417.016L363.998 488.586L375.615 407.131L377.876 391.277L362.639 396.204L219.955 442.338L281.551 375.582L299.929 355.664L273.018 358.871L120.766 377.016L218.936 328.009L252.969 311.02L214.98 309.074L70.8095 301.693L196.016 272.234V252.766L70.8095 223.306L214.98 215.926L252.969 213.98L218.936 196.991L120.766 147.983L273.018 166.129L299.929 169.336L281.551 149.418L219.955 82.6611L362.639 128.796L377.876 133.723L375.615 117.869L363.998 36.4131L472.466 107.984L481.182 113.735L486.551 104.779L537.705 19.4482L588.859 104.779Z" fill="#FDE104" stroke="black" stroke-width="20"/>
</svg>
